<?xml version="1.0" encoding="UTF-8" standalone="no"?>
<!-- Uploaded to: SVG Repo, www.svgrepo.com, Generator: SVG Repo Mixer Tools -->

<svg
   fill="#000000"
   width="800px"
   height="800px"
   viewBox="0 0 36 36"
   version="1.1"
   preserveAspectRatio="xMidYMid meet"
   id="svg271"
   sodipodi:docname="700_small.svg"
   inkscape:version="1.2 (dc2aeda, 2022-05-15)"
   xmlns:inkscape="http://www.inkscape.org/namespaces/inkscape"
   xmlns:sodipodi="http://sodipodi.sourceforge.net/DTD/sodipodi-0.dtd"
   xmlns="http://www.w3.org/2000/svg"
   xmlns:svg="http://www.w3.org/2000/svg">
  <defs
     id="defs275" />
  <sodipodi:namedview
     id="namedview273"
     pagecolor="#ffffff"
     bordercolor="#000000"
     borderopacity="0.25"
     inkscape:showpageshadow="2"
     inkscape:pageopacity="0.0"
     inkscape:pagecheckerboard="0"
     inkscape:deskcolor="#d1d1d1"
     showgrid="false"
     inkscape:zoom="0.71705168"
     inkscape:cx="351.4391"
     inkscape:cy="330.52011"
     inkscape:window-width="1390"
     inkscape:window-height="916"
     inkscape:window-x="0"
     inkscape:window-y="38"
     inkscape:window-maximized="0"
     inkscape:current-layer="svg271" />
  <title
     id="title261">auto-line</title>
  <path
     class="clr-i-outline clr-i-outline-path-2"
     d="M26.45,14.17A22.1,22.1,0,0,0,19.38,7a9.64,9.64,0,0,0-9-.7,8.6,8.6,0,0,0-4.82,6.4c-.08.47-.14.92-.2,1.36A4,4,0,0,0,2,18v6.13a2,2,0,0,0,2,2V20H4V18a2,2,0,0,1,2-2H24.73A7.28,7.28,0,0,1,32,23.27V24h-2a4.53,4.53,0,1,0,.33,2H32a2,2,0,0,0,2-2v-.73A9.28,9.28,0,0,0,26.45,14.17ZM11,14H6.93c0-.31.09-.63.15-1A6.52,6.52,0,0,1,11,8h0Zm2,0V7.58a8.17,8.17,0,0,1,5.36,1.16A19,19,0,0,1,23.9,14ZM25.8,28.38a2.5,2.5,0,1,1,2.5-2.5A2.5,2.5,0,0,1,25.8,28.38Z"
     id="path265" />
  <path
     class="clr-i-outline clr-i-outline-path-3"
     d="M14.17,24a4.53,4.53,0,1,0,.33,2h5.3c0-.08,0-.17,0-.25A6,6,0,0,1,20,24ZM10,28.38a2.5,2.5,0,1,1,2.5-2.5A2.5,2.5,0,0,1,10,28.38Z"
     id="path267" />
  <rect
     x="0"
     y="0"
     width="36"
     height="36"
     fill-opacity="0"
     id="rect269" />
  <text
     xml:space="preserve"
     style="font-size:6.60002px;font-family:hel;-inkscape-font-specification:hel;fill:#ffffff;stroke:#000000;stroke-width:0.18;font-weight:normal;font-style:normal;font-stretch:normal;font-variant:normal"
     x="14.126582"
     y="18.403116"
     id="text606"><tspan
       sodipodi:role="line"
       id="tspan604"
       x="14.126582"
       y="18.403116"
       style="stroke-width:0.18;-inkscape-font-specification:hel;font-family:hel;font-weight:normal;font-style:normal;font-stretch:normal;font-variant:normal" /></text>
  <text
     xml:space="preserve"
     style="font-style:normal;font-variant:normal;font-weight:normal;font-stretch:normal;font-size:6.60002px;font-family:hel;-inkscape-font-specification:hel;fill:#ffffff;stroke:#000000;stroke-width:0.18"
     x="10.971762"
     y="21.207401"
     id="text660"><tspan
       sodipodi:role="line"
       id="tspan658"
       x="10.971762"
       y="21.207401"
       style="fill:#000000;fill-opacity:1;stroke-width:0.18">700</tspan></text>
</svg>
