<?xml version="1.0" encoding="UTF-8" standalone="no"?>
<!-- Uploaded to: SVG Repo, www.svgrepo.com, Generator: SVG Repo Mixer Tools -->

<svg
   width="24"
   height="24"
   viewBox="0 0 24 24"
   fill="none"
   stroke="#000000"
   stroke-width="2"
   stroke-linecap="round"
   stroke-linejoin="round"
   version="1.1"
   id="svg138"
   sodipodi:docname="car-svgrepo-com(1).svg"
   xmlns:inkscape="http://www.inkscape.org/namespaces/inkscape"
   xmlns:sodipodi="http://sodipodi.sourceforge.net/DTD/sodipodi-0.dtd"
   xmlns="http://www.w3.org/2000/svg"
   xmlns:svg="http://www.w3.org/2000/svg">
  <defs
     id="defs142" />
  <sodipodi:namedview
     id="namedview140"
     pagecolor="#ffffff"
     bordercolor="#000000"
     borderopacity="0.25"
     inkscape:showpageshadow="2"
     inkscape:pageopacity="0.0"
     inkscape:pagecheckerboard="0"
     inkscape:deskcolor="#d1d1d1"
     showgrid="false" />
  <path
     id="path132"
     style="stroke-width:0.8;stroke-dasharray:none"
     d="M 5.2402344,7 A 2,2 0 0 0 3.4394531,8.0996094 L 2.640625,9.7304688 A 6,6 0 0 0 2,12.419922 V 16 H 4 4.056641 A 2.5,2.5 0 0 0 4,16.5 2.5,2.5 0 0 0 6.5,19 2.5,2.5 0 0 0 9,16.5 2.5,2.5 0 0 0 8.9492188,16 H 9 14 14.05664 A 2.5,2.5 0 0 0 14,16.5 2.5,2.5 0 0 0 16.5,19 2.5,2.5 0 0 0 19,16.5 2.5,2.5 0 0 0 18.949219,16 H 19 22 V 12.849609 A 1,1 0 0 0 21.160156,11.859375 L 16,11 13.300781,7.4003906 A 1,1 0 0 0 12.5,7 Z"
     inkscape:export-filename="car_700_1.svg"
     inkscape:export-xdpi="96"
     inkscape:export-ydpi="96" />
  <text
     xml:space="preserve"
     style="font-style:normal;font-variant:normal;font-weight:normal;font-stretch:normal;font-size:6.65336px;font-family:'Arial Rounded MT Bold';-inkscape-font-specification:'Arial Rounded MT Bold, Normal';font-variant-ligatures:normal;font-variant-caps:normal;font-variant-numeric:normal;font-variant-east-asian:normal;fill:#000000;stroke:#000000;stroke-width:0.0362908;stroke-dasharray:none"
     x="5.0743909"
     y="11.584788"
     id="text1028"
     transform="scale(0.78856262,1.2681301)"
     inkscape:label="text1028"><tspan
       sodipodi:role="line"
       id="tspan1509"
       x="5.0743909"
       y="11.584788">350</tspan></text>
</svg>
