<?xml version="1.0" encoding="UTF-8" standalone="no"?>
<!-- Uploaded to: SVG Repo, www.svgrepo.com, Generator: SVG Repo Mixer Tools -->

<svg
   width="600"
   height="533.33344"
   viewBox="0 0 18 16.000003"
   version="1.1"
   id="svg139"
   sodipodi:docname="car_3.svg"
   inkscape:export-filename="car_3_without.svg"
   inkscape:export-xdpi="96"
   inkscape:export-ydpi="96"
   xmlns:inkscape="http://www.inkscape.org/namespaces/inkscape"
   xmlns:sodipodi="http://sodipodi.sourceforge.net/DTD/sodipodi-0.dtd"
   xmlns="http://www.w3.org/2000/svg"
   xmlns:svg="http://www.w3.org/2000/svg">
  <defs
     id="defs143" />
  <sodipodi:namedview
     id="namedview141"
     pagecolor="#ffffff"
     bordercolor="#000000"
     borderopacity="0.25"
     inkscape:showpageshadow="2"
     inkscape:pageopacity="0.0"
     inkscape:pagecheckerboard="0"
     inkscape:deskcolor="#d1d1d1"
     showgrid="false" />
  <title
     id="title132">car</title>
  <desc
     id="desc134">Created with sketchtool.</desc>
  <g
     id="vehicles"
     stroke="none"
     stroke-width="1"
     fill="none"
     fill-rule="evenodd"
     transform="translate(-3,-3.9999998)">
    <g
       id="car"
       fill="#000000"
       fill-rule="nonzero">
      <path
         d="M 3,18 V 13 C 3,11.895431 3.8954305,11 5,11 V 8 C 5,5.790861 6.790861,4 9,4 h 6 c 2.209139,0 4,1.790861 4,4 v 3 c 1.104569,0 2,0.895431 2,2 v 5 c 0,1.104569 -0.895431,2 -2,2 -1.10457,0 -2,-0.895431 -2,-2 H 7 C 7,19.104569 6.1045695,20 5,20 3.8954305,20 3,19.104569 3,18 Z M 9,6 C 7.8954305,6 7,6.8954305 7,8 v 3 H 17 V 8 C 17,6.8954305 16.104569,6 15,6 Z m -3,9 c 0.5522847,0 1,-0.447715 1,-1 0,-0.552285 -0.4477153,-1 -1,-1 -0.5522848,0 -1,0.447715 -1,1 0,0.552285 0.4477152,1 1,1 z m 12,0 c 0.552285,0 1,-0.447715 1,-1 0,-0.552285 -0.447715,-1 -1,-1 -0.552285,0 -1,0.447715 -1,1 0,0.552285 0.447715,1 1,1 z"
         id="Shape" />
    </g>
  </g>
</svg>
