<?xml version="1.0" encoding="UTF-8" standalone="no"?>
<!-- Uploaded to: SVG Repo, www.svgrepo.com, Generator: SVG Repo Mixer Tools -->

<svg
   width="633.33398"
   height="600"
   viewBox="0 0 19.00002 18"
   version="1.1"
   id="svg139"
   sodipodi:docname="gas-station-svgrepo-com.svg"
   xmlns:inkscape="http://www.inkscape.org/namespaces/inkscape"
   xmlns:sodipodi="http://sodipodi.sourceforge.net/DTD/sodipodi-0.dtd"
   xmlns="http://www.w3.org/2000/svg"
   xmlns:svg="http://www.w3.org/2000/svg">
  <defs
     id="defs143" />
  <sodipodi:namedview
     id="namedview141"
     pagecolor="#ffffff"
     bordercolor="#000000"
     borderopacity="0.25"
     inkscape:showpageshadow="2"
     inkscape:pageopacity="0.0"
     inkscape:pagecheckerboard="0"
     inkscape:deskcolor="#d1d1d1"
     showgrid="false" />
  <title
     id="title132">gas_station_fill</title>
  <g
     id="页面-1"
     stroke="none"
     stroke-width="1"
     fill="none"
     fill-rule="evenodd"
     transform="translate(-2.4440038,-3)">
    <g
       id="Transport"
       transform="translate(-672,-48)">
      <g
         id="gas_station_fill"
         transform="translate(672,48)"
         style="display:inline">
        <path
           id="形状"
           style="display:inline;fill:#ffffff;fill-opacity:1"
           d="M 5.4440039,3 C 4.3394372,3 3.4440234,3.8954138 3.4440234,4.9999805 V 19.00002 c -0.5522782,0 -1.0000195,0.447663 -1.0000195,0.99996 0,0.5523 0.4477413,1.00002 1.0000195,1.00002 H 15.444023 c 0.5523,0 0.999961,-0.44772 0.999961,-1.00002 0,-0.552297 -0.447661,-0.99996 -0.999961,-0.99996 v -5.00004 h 0.999961 V 16.5 c 0,1.380697 1.119323,2.50002 2.50002,2.50002 1.380697,0 2.500019,-1.119323 2.500019,-2.50002 v -6.085781 c 0,-0.5304191 -0.21072,-1.0391502 -0.58582,-1.414219 l -2.70709,-2.7070898 c -0.390497,-0.3905191 -1.023721,-0.3905191 -1.414218,0 -0.3905,0.3905288 -0.3905,1.0236899 0,1.4142187 l 1.101035,1.1010352 c -0.0263,0.03545 -0.05151,0.071783 -0.07541,0.1090429 -0.1872,0.2905891 -0.295793,0.6247061 -0.315293,0.9697852 -0.0195,0.3450798 0.05071,0.6894018 0.203906,0.9991988 0.1531,0.3098 0.383902,0.574709 0.669902,0.768809 0.2861,0.194 0.617495,0.310696 0.961992,0.338496 0.0537,0.0043 0.107357,0.0065 0.160957,0.0065 v 4.5 c 0,0.2761 -0.22388,0.49998 -0.49998,0.49998 -0.2761,0 -0.499981,-0.22388 -0.499981,-0.49998 V 13.99998 C 18.444023,12.895386 17.548581,12 16.443984,12 H 15.444023 V 4.9999805 C 15.444023,3.8954138 14.548581,3 13.443984,3 Z m 1.0911914,4.4026758 c 0.1744788,0 0.3151044,0.058594 0.421875,0.1757812 0.1093748,0.1145832 0.1640625,0.2903651 0.1640625,0.5273438 v 1.640625 h 2.5038867 v -1.640625 c 0,-0.2343746 0.052103,-0.4101565 0.1562696,-0.5273438 0.1067706,-0.1171873 0.2460739,-0.1757812 0.4179489,-0.1757812 0.174479,0 0.315105,0.058594 0.421875,0.1757812 0.109376,0.1145832 0.164063,0.2903651 0.164063,0.5273438 V 12.61752 c 0,0.236978 -0.05469,0.414024 -0.164063,0.53121 -0.109374,0.117188 -0.25,0.175782 -0.421875,0.175782 -0.174479,0 -0.3137825,-0.05859 -0.4179489,-0.175782 C 9.6771226,13.02894 9.6250195,12.851894 9.6250195,12.61752 V 10.691719 H 7.1211328 v 1.925801 c 0,0.236978 -0.054688,0.414024 -0.1640625,0.53121 -0.1093748,0.117188 -0.2500004,0.175782 -0.421875,0.175782 -0.1744787,0 -0.3138413,-0.05859 -0.4180078,-0.175782 C 6.013021,13.02894 5.9609766,12.851894 5.9609766,12.61752 V 8.1058008 c 0,-0.2343746 0.050781,-0.4101565 0.1523437,-0.5273438 C 6.2174868,7.4612697 6.3581124,7.4026758 6.5351953,7.4026758 Z M 12.29168,11.055176 c 0.239062,0 0.442969,0.0375 0.611718,0.1125 0.109375,0.05 0.205469,0.11875 0.288282,0.20625 0.08281,0.0875 0.146875,0.189062 0.192187,0.304687 0.04687,0.114063 0.07031,0.232813 0.07031,0.35625 0,0.19375 -0.04844,0.370313 -0.145313,0.529688 -0.09531,0.157812 -0.192969,0.282031 -0.292969,0.372656 -0.1,0.08906 -0.267968,0.229687 -0.503906,0.421875 -0.234374,0.192187 -0.395312,0.341406 -0.482812,0.447656 -0.03749,0.04217 -0.07574,0.09294 -0.114785,0.152285 h 1.223378 c 0.121875,0 0.214844,0.025 0.278907,0.075 0.06406,0.05 0.09609,0.117969 0.09609,0.203907 0,0.07656 -0.02578,0.141406 -0.07734,0.194531 -0.05,0.05313 -0.126563,0.07969 -0.229688,0.07969 h -1.725 c -0.117187,0 -0.208594,-0.03197 -0.274219,-0.09604 -0.06563,-0.06563 -0.09844,-0.142247 -0.09844,-0.229746 0,-0.05625 0.0211,-0.130465 0.06328,-0.222656 0.04219,-0.09375 0.08828,-0.167129 0.138281,-0.220254 0.207812,-0.215625 0.395313,-0.4 0.5625,-0.553125 0.167188,-0.154688 0.28672,-0.256309 0.358594,-0.304746 0.128125,-0.09062 0.234376,-0.18125 0.31875,-0.271875 0.08594,-0.09219 0.150781,-0.185937 0.194531,-0.28125 0.04531,-0.09688 0.06797,-0.191406 0.06797,-0.283594 0,-0.1 -0.02422,-0.189004 -0.07266,-0.267129 -0.04687,-0.07969 -0.111717,-0.141406 -0.194531,-0.185156 -0.08125,-0.04375 -0.170313,-0.06562 -0.267188,-0.06562 -0.204687,0 -0.365625,0.08984 -0.482812,0.269531 -0.01563,0.02344 -0.04219,0.0875 -0.07969,0.192188 -0.03594,0.104688 -0.07735,0.185156 -0.124219,0.241406 -0.04531,0.05625 -0.1125,0.08437 -0.201562,0.08437 -0.07813,0 -0.142969,-0.02578 -0.194531,-0.07734 -0.05156,-0.05156 -0.07734,-0.121872 -0.07734,-0.210937 0,-0.107812 0.02422,-0.220312 0.07266,-0.3375 0.04844,-0.117187 0.120315,-0.223438 0.215625,-0.31875 0.09688,-0.09531 0.218751,-0.171875 0.365625,-0.229688 0.148438,-0.05937 0.321876,-0.08906 0.520313,-0.08906 z" />
      </g>
    </g>
  </g>
</svg>
